<svg xmlns="http://www.w3.org/2000/svg" viewBox="0 0 538.89 277.25"><defs><style>.cls-1{fill:#fff;}.cls-1,.cls-2,.cls-3{stroke:#1d1d1b;stroke-linecap:round;stroke-width:4px;}.cls-1,.cls-2{stroke-miterlimit:10;}.cls-2,.cls-3{fill:none;}.cls-3{stroke-linejoin:round;}</style></defs><g id="Layer_3" data-name="Layer 3"><line class="cls-1" x1="261.58" y1="151.75" x2="261.58" y2="265.14"/><line class="cls-1" x1="261.58" y1="17.24" x2="261.58" y2="130.63"/><path class="cls-2" d="M261.58,130.63a56.7,56.7,0,1,1,56.69-56.7"/><line class="cls-2" x1="204.89" y1="141.02" x2="318.27" y2="141.02"/><circle class="cls-2" cx="261.58" cy="208.44" r="56.69"/><path class="cls-2" d="M318.27,151.42a28.51,28.51,0,0,1-28.51,28.51H261.23V151.75"/><path class="cls-2" d="M261.23,130.63V101.78h28.53a28.5,28.5,0,0,1,28.51,28.51h0"/></g><g id="Layer_9" data-name="Layer 9"><path class="cls-3" d="M422.72,17.24V130.63H393.28l-33.79-56v56H329.83V17.24h29.66l33.58,55.82V17.24Z"/><path class="cls-3" d="M473.31,45.37V60.42h37.94V87H473.31V102.5H523.9v28.13H443.65V17.24H523.9V45.37Z"/><path class="cls-3" d="M417.32,194.08c0,41.6-36.66,41.6-57,41.6H359V264.2H329.83V152.69h30C380.23,152.69,417.32,152.69,417.32,194.08Zm-30-.22c0-13.72-11.36-13.72-19.94-13.72H359v28.09h8.36C376.58,208.23,387.3,208.23,387.3,193.86Z"/><path class="cls-3" d="M12.68,252.06l12.13-24c9.15,6.59,20,10.21,28.94,10.21,8.08,0,11.91-2.34,11.91-6,0-12.55-50-13.4-50-48.72,0-18.51,15.11-32.13,39.57-32.13,16,0,27.45,4.89,38.31,12.13L81.83,187.16c-8.08-4.89-17-8.93-26.81-8.93-6.81,0-9.78,2.55-9.78,5.53,0,13,50,10.64,50,47.87C95.24,252.27,79.7,265,55,265,38.64,265,24,260.36,12.68,252.06Z"/><path class="cls-3" d="M193.33,180.57H168.64v83H139.71v-83H115V152.91h78.3Z"/></g></svg>